<svg width="459" height="286" viewBox="0 0 459 286" fill="none" xmlns="http://www.w3.org/2000/svg">
<g filter="url(#filter0_ddddd_42_1703)">
<path d="M284.489 137.733H289.33V129.076H293.688C299.452 129.076 303.043 132.679 304.469 137.736H309.302C307.333 131.926 301.963 127.664 294.173 127.664H282.776V127.708C284.272 129.96 284.493 131.239 284.493 135.786V137.733H284.489Z" fill="white"/>
<path d="M294.083 157.151C292.499 157.151 290.87 157.107 289.33 156.797V147.451H284.489V150.44C284.489 154.987 284.268 156.266 282.772 158.517V158.562H294.169C302.038 158.562 307.668 153.808 309.5 147.453H304.755C303.635 153.045 300.193 157.151 294.081 157.151H294.083Z" fill="white"/>
<path d="M268.16 127L266.225 127.618L262.383 137.731H263.852L265.432 133.49L267.067 137.731H272.388L268.16 127Z" fill="white"/>
<path d="M276.216 147.451H270.862L272.121 150.794C273.793 155.077 273.924 156.268 272.472 158.519V158.564H281.272V158.519C279.908 156.357 279.204 155.077 277.531 150.794L276.214 147.451H276.216Z" fill="white"/>
<path d="M257.425 150.794C255.84 155.077 255.18 156.312 253.773 158.519V158.564H258.7V158.519C257.248 156.268 257.381 155.077 258.965 150.794L260.209 147.449H258.696L257.427 150.794H257.425Z" fill="white"/>
<path d="M312.771 137.736H317.524V129.076H322.454C326.238 129.076 327.69 130.048 330.991 132.563H331.035L330.64 127.664H311.057V127.708C312.553 129.96 312.773 131.239 312.773 135.786V137.736H312.771Z" fill="white"/>
<path d="M331.956 153.665C328.701 156.18 327.249 157.151 323.463 157.151H319.767C317.829 157.151 317.522 155.916 317.522 153.311V147.455H312.769V150.442C312.769 154.989 312.549 156.268 311.053 158.519V158.564H331.603L332 153.665H331.956Z" fill="white"/>
<path d="M136.813 129.076C141.389 129.076 143.766 131.945 143.766 135.786C143.766 136.467 143.665 137.105 143.512 137.719H148.483C148.66 137.088 148.782 136.435 148.782 135.741C148.782 131.062 145.527 127.664 138.044 127.664H127V127.708C128.496 129.96 128.717 131.239 128.717 135.786V150.442C128.717 154.989 128.496 156.268 127 158.519V158.564H135.184V158.519C133.688 156.268 133.468 154.989 133.468 150.442V129.076H136.813Z" fill="white"/>
<path d="M148.607 153.618L146.142 148.983C145.833 148.41 145.522 147.908 145.209 147.436H139.828C140.259 148.092 140.692 148.819 141.125 149.689L145.745 158.562H152.301V158.517C150.584 157.105 150.057 156.31 148.605 153.616L148.607 153.618Z" fill="white"/>
<path d="M207.073 137.725H211.826V129.076H216.755C220.54 129.076 221.992 130.048 225.293 132.563H225.337L224.942 127.664H205.358V127.708C206.854 129.96 207.075 131.239 207.075 135.786V137.725H207.073Z" fill="white"/>
<path d="M217.766 157.151H214.07C212.133 157.151 211.826 155.916 211.826 153.311V147.444H207.073V150.442C207.073 154.989 206.852 156.268 205.356 158.519V158.564H225.906L226.303 153.665H226.259C223.004 156.18 221.552 157.151 217.766 157.151Z" fill="white"/>
<path d="M155.657 137.721H160.41V129.076H165.339C169.124 129.076 170.576 130.048 173.877 132.563H173.921L173.526 127.664H153.942V127.708C155.438 129.96 155.659 131.239 155.659 135.786V137.721H155.657Z" fill="white"/>
<path d="M166.35 157.151H162.654C160.717 157.151 160.41 155.916 160.41 153.311V147.438H155.657V150.442C155.657 154.989 155.436 156.268 153.94 158.519V158.564H174.49L174.885 153.665H174.841C171.586 156.18 170.134 157.151 166.348 157.151H166.35Z" fill="white"/>
<path d="M198.046 127.708C199.498 129.96 199.762 131.239 199.762 135.786V137.725H201.347V135.786C201.347 131.239 201.567 129.96 203.019 127.708V127.664H198.048V127.708H198.046Z" fill="white"/>
<path d="M176.527 127.664V127.708C178.023 129.96 178.244 131.239 178.244 135.786V137.723H179.828V133.49L183.186 137.723H189.55L181.501 127.664H176.527Z" fill="white"/>
<path d="M179.828 147.442H178.244V150.442C178.244 154.989 178.023 156.268 176.527 158.519V158.564H181.501V158.519C180.049 156.268 179.828 154.989 179.828 150.442V147.442Z" fill="white"/>
<path d="M199.763 150.486L197.327 147.442H190.895L199.716 158.564H201.345V147.444L199.763 147.442V150.486Z" fill="white"/>
<path d="M242.701 128.589C246.574 128.589 249.478 130.356 252.031 133.842H252.163L251.724 128.501C249.127 127.664 246.664 127.133 242.657 127.133C234.96 127.133 229.488 131.595 227.425 137.725H232.525C233.897 132.335 237.421 128.587 242.703 128.587L242.701 128.589Z" fill="white"/>
<path d="M248.66 147.459L247.143 147.449V147.493C248.595 149.744 248.86 150.979 248.86 155.57V156.399C247.364 157.238 245.605 157.636 243.273 157.636C237.591 157.636 233.588 153.507 232.313 147.444H226.982C228.535 154.148 233.966 159.093 242.613 159.093C248.07 159.093 251.281 157.548 253.35 156.355V147.447H248.66C248.66 147.447 248.66 147.455 248.66 147.457V147.459Z" fill="white"/>
</g>
<defs>
<filter id="filter0_ddddd_42_1703" x="0.594444" y="0.594444" width="457.811" height="284.904" filterUnits="userSpaceOnUse" color-interpolation-filters="sRGB">
<feFlood flood-opacity="0" result="BackgroundImageFix"/>
<feColorMatrix in="SourceAlpha" type="matrix" values="0 0 0 0 0 0 0 0 0 0 0 0 0 0 0 0 0 0 127 0" result="hardAlpha"/>
<feOffset/>
<feGaussianBlur stdDeviation="3.00966"/>
<feColorMatrix type="matrix" values="0 0 0 0 1 0 0 0 0 1 0 0 0 0 1 0 0 0 1 0"/>
<feBlend mode="normal" in2="BackgroundImageFix" result="effect1_dropShadow_42_1703"/>
<feColorMatrix in="SourceAlpha" type="matrix" values="0 0 0 0 0 0 0 0 0 0 0 0 0 0 0 0 0 0 127 0" result="hardAlpha"/>
<feOffset/>
<feGaussianBlur stdDeviation="10.5338"/>
<feColorMatrix type="matrix" values="0 0 0 0 1 0 0 0 0 1 0 0 0 0 1 0 0 0 1 0"/>
<feBlend mode="normal" in2="effect1_dropShadow_42_1703" result="effect2_dropShadow_42_1703"/>
<feColorMatrix in="SourceAlpha" type="matrix" values="0 0 0 0 0 0 0 0 0 0 0 0 0 0 0 0 0 0 127 0" result="hardAlpha"/>
<feOffset/>
<feGaussianBlur stdDeviation="21.0676"/>
<feColorMatrix type="matrix" values="0 0 0 0 1 0 0 0 0 1 0 0 0 0 1 0 0 0 1 0"/>
<feBlend mode="normal" in2="effect2_dropShadow_42_1703" result="effect3_dropShadow_42_1703"/>
<feColorMatrix in="SourceAlpha" type="matrix" values="0 0 0 0 0 0 0 0 0 0 0 0 0 0 0 0 0 0 127 0" result="hardAlpha"/>
<feOffset/>
<feGaussianBlur stdDeviation="36.1159"/>
<feColorMatrix type="matrix" values="0 0 0 0 1 0 0 0 0 1 0 0 0 0 1 0 0 0 1 0"/>
<feBlend mode="normal" in2="effect3_dropShadow_42_1703" result="effect4_dropShadow_42_1703"/>
<feColorMatrix in="SourceAlpha" type="matrix" values="0 0 0 0 0 0 0 0 0 0 0 0 0 0 0 0 0 0 127 0" result="hardAlpha"/>
<feOffset/>
<feGaussianBlur stdDeviation="63.2028"/>
<feColorMatrix type="matrix" values="0 0 0 0 1 0 0 0 0 1 0 0 0 0 1 0 0 0 1 0"/>
<feBlend mode="normal" in2="effect4_dropShadow_42_1703" result="effect5_dropShadow_42_1703"/>
<feBlend mode="normal" in="SourceGraphic" in2="effect5_dropShadow_42_1703" result="shape"/>
</filter>
</defs>
</svg>
